<?xml version="1.0" encoding="UTF-8"?><svg id="Layer_2" xmlns="http://www.w3.org/2000/svg" viewBox="0 0 270.51 95.85"><defs><style>.cls-1{fill:#00b14f;}</style></defs><g id="Layer_1-2"><path class="cls-1" d="m72.42,20.36c-.25-.15-.4-.23-.54-.32-3.95-2.59-8.27-4.32-12.84-5.43-2.25-.55-4.52-.93-6.83-1.17-2.46-.26-4.92-.45-7.38-.34-13.38.61-24.07,6.17-31.55,17.42-2.9,4.36-4.63,9.19-5.43,14.37-.38,2.46-.55,4.94-.45,7.43.32,7.64,2.4,14.73,6.82,21.04,5.45,7.77,12.88,12.62,22.15,14.68,1.78.4,3.59.69,5.41.76,1.63.06,3.27.16,4.91.1,4.66-.18,9.2-1.02,13.47-2.98,7.06-3.24,11.74-8.61,14.16-15.96.87-2.65,1.44-5.38,1.54-8.17.11-3.08.1-6.16.13-9.24,0-.12-.03-.24-.06-.45-5.04,0-10.05,0-15.06,0s-10.03,0-15.09,0v-6.66s.04-.04.06-.06c.02-.01.03-.03.05-.03.1-.02.21-.04.31-.04,12.02,0,24.03,0,36.05,0,.06,0,.12.03.24.06.02.17.05.35.05.53,0,4.29.07,8.59-.02,12.88-.12,5.71-1.06,11.28-3.34,16.57-4.06,9.41-11.08,15.54-20.84,18.58-2.46.76-4.97,1.25-7.53,1.55-2.5.29-5,.43-7.51.34-8.88-.32-17.12-2.71-24.48-7.79-8.24-5.69-13.74-13.41-16.72-22.95-.93-2.99-1.51-6.05-1.83-9.16-.25-2.46-.34-4.92-.2-7.38.54-9.81,3.84-18.57,10.16-26.13,6.13-7.33,13.91-12.12,23.12-14.61,2.3-.62,4.63-1.04,7-1.3,2.16-.23,4.32-.4,6.49-.32,2.21.07,4.41.18,6.61.45,4.58.57,9.01,1.67,13.22,3.58,1.84.84,3.59,1.83,5.27,2.96.37.25.54.52.54.98-.02,1.85,0,3.7-.01,5.55,0,.18-.02.37-.04.66Z"/><path class="cls-1" d="m194.63,93.75h-6.93c-.02-.2-.05-.4-.05-.6,0-.83,0-1.66,0-2.49,0-10.35,0-20.7,0-31.05,0-4.06-.64-8-2.26-11.74-3.48-8.01-9.51-13.02-18.01-15.05-2.39-.57-4.82-.81-7.27-.73-12.22.39-21.76,7.98-25.23,19.09-.76,2.42-1.18,4.9-1.31,7.44-.25,4.95.38,9.76,2.31,14.34,3.41,8.11,9.46,13.15,18.02,15.19,2.75.65,5.54.92,8.35.72,3.95-.27,7.7-1.26,11.06-3.47.05-.03.11-.05.22-.09.02.19.05.34.06.5,0,1.89,0,3.78.01,5.67,0,.43-.15.7-.51.94-1.89,1.28-3.98,2.09-6.18,2.64-2.43.61-4.89.85-7.39.75-5.46-.23-10.67-1.46-15.51-4.07-7.14-3.86-12.11-9.64-15.07-17.16-1.22-3.1-1.95-6.32-2.32-9.63-.24-2.14-.33-4.29-.2-6.43.61-10.46,4.66-19.26,12.81-26.01,4.1-3.39,8.8-5.57,13.99-6.74,3.39-.76,6.82-.96,10.26-.73,6.29.42,12.13,2.27,17.32,5.93,5.85,4.13,9.78,9.67,12.01,16.43.9,2.73,1.48,5.54,1.67,8.41.09,1.29.15,2.59.15,3.88.01,11.01,0,22.02,0,33.02,0,.32,0,.63,0,1.03Z"/><path class="cls-1" d="m45.76,62.75v-6.92c.24-.02.46-.06.69-.06,8.34,0,16.67,0,25.01,0,.23,0,.45.03.73.05.01.26.04.47.04.67,0,1.66.04,3.32-.03,4.97-.28,6.69-2.7,12.43-7.68,17-2.94,2.69-6.41,4.43-10.23,5.5-1.94.54-3.93.87-5.94,1.06-2.04.19-4.08.22-6.12.07-6.35-.47-12.16-2.5-17.31-6.28-6.29-4.63-10.4-10.77-12.49-18.27-.66-2.36-1.03-4.76-1.2-7.21-.41-5.95.56-11.65,3.15-17.03,3.93-8.17,10.21-13.83,18.63-17.14,2.6-1.02,5.3-1.66,8.07-2.04,2.45-.34,4.92-.38,7.38-.24,6.36.35,12.47,1.75,18.27,4.42,1.82.84,3.56,1.8,5.24,2.9.36.24.51.49.51.93-.02,1.83,0,3.65-.01,5.48,0,.13,0,.26-.01.38-.06.37-.31.49-.63.31-.17-.09-.32-.21-.48-.32-4.75-3.19-9.93-5.35-15.56-6.4-1.81-.34-3.64-.63-5.49-.68-2.1-.06-4.22-.23-6.31-.09-11.04.72-20.34,7.37-23.85,18.1-1.07,3.28-1.51,6.66-1.37,10.11.18,4.55,1.14,8.93,3.3,12.97,3.52,6.6,8.95,10.77,16.21,12.54,2.36.58,4.77.82,7.2.75,3.7-.11,7.31-.72,10.68-2.36,2.79-1.36,5.12-3.25,6.82-5.87,1.22-1.89,1.93-3.96,2.12-6.2,0-.11.02-.21.02-.32.02-.66-.04-.72-.72-.72-5.27,0-10.55,0-15.82,0-.83,0-1.66,0-2.49,0-.08,0-.16-.03-.32-.06Z"/><path class="cls-1" d="m198.21,62.39c-.01-.18-.04-.36-.04-.55,0-2.91,0-5.82,0-8.73,0-.37.05-.7.28-1.02,2.59-3.61,5.11-7.27,7.91-10.72,2.53-3.13,5.26-6.07,8.4-8.61,3.91-3.15,8.25-5.45,13.14-6.65,1.69-.42,3.41-.69,5.14-.86,2.08-.2,4.17-.25,6.24-.07,11.71,1.04,20.65,6.53,26.56,16.74,2.2,3.81,3.52,7.94,4.17,12.29.33,2.21.52,4.43.47,6.66-.16,8.22-2.41,15.75-7.49,22.31-4.84,6.25-11.16,10.22-18.9,11.9-2.82.61-5.67.86-8.55.73-7.06-.32-13.52-2.39-19.18-6.7-4.41-3.36-7.68-7.6-9.72-12.78-.21-.53-.17-.91.19-1.38,1.39-1.82,2.74-3.69,4.1-5.53.08-.11.18-.22.32-.38.07.18.12.28.15.4,2.42,9.7,10.35,16.59,19.27,18.72,2.67.64,5.37.92,8.09.71,9.16-.71,16.11-5.05,20.81-12.94,1.91-3.21,3.03-6.72,3.62-10.4.35-2.24.46-4.48.35-6.73-.3-6.16-2.06-11.82-5.89-16.73-3.73-4.79-8.6-7.82-14.5-9.22-2.53-.6-5.11-.84-7.71-.74-6.08.21-11.49,2.24-16.29,5.97-3.02,2.35-5.67,5.07-8.15,7.96-3.47,4.03-6.65,8.29-9.82,12.55-.95,1.28-1.9,2.55-2.85,3.83-.04,0-.09-.01-.13-.02Z"/><path class="cls-1" d="m219.87,57.89c0,.29,0,.52,0,.74.02,2.59.4,5.12,1.27,7.56,1.29,3.6,3.35,6.67,6.42,9.01,2.27,1.72,4.82,2.79,7.65,3.09,7.21.77,13.31-2.75,16.19-9.4.96-2.22,1.45-4.56,1.63-6.97.22-3.01-.11-5.95-1.2-8.76-2.02-5.23-5.71-8.66-11.19-10.05-2.08-.53-4.2-.57-6.33-.35-3.94.4-7.23,2.19-10.16,4.76-2.2,1.93-4.11,4.12-5.98,6.36-4.96,5.94-9.89,11.9-14.48,18.13-1.7,2.31-3.35,4.66-5.02,6.99-.12.17-.24.33-.45.61-.02-.34-.04-.54-.04-.75,0-3.21,0-6.42,0-9.63,0-.49.11-.9.41-1.29,3.44-4.54,6.86-9.09,10.31-13.62,1.7-2.23,3.41-4.46,5.19-6.63,2.3-2.8,4.88-5.33,7.87-7.41,3.02-2.1,6.32-3.58,9.94-4.24,2.29-.42,4.59-.53,6.91-.33,3.62.32,7,1.34,10.09,3.24,5.02,3.09,8.26,7.55,10,13.14.94,3.03,1.27,6.14,1.16,9.31-.2,5.47-1.71,10.5-5,14.92-3.41,4.59-7.94,7.46-13.57,8.57-2.13.42-4.27.52-6.41.32-4.71-.42-8.86-2.25-12.45-5.32-3.57-3.05-6.16-6.78-7.59-11.27-.3-.95-.48-1.93-.68-2.91-.04-.2.02-.48.14-.65,1.72-2.38,3.45-4.74,5.19-7.1.01-.01.04-.02.18-.07Z"/><path class="cls-1" d="m184.12,93.76h-6.87c-.02-.3-.05-.57-.05-.83,0-9.46,0-18.91,0-28.37,0-1.95.06-3.91-.03-5.86-.18-3.96-1.35-7.59-3.91-10.69-2.22-2.69-5.1-4.31-8.48-5.08-1.8-.41-3.63-.54-5.45-.36-5.06.49-9.05,2.86-11.94,7.04-1.8,2.6-2.78,5.52-3.1,8.66-.36,3.53,0,6.97,1.43,10.23,2.3,5.23,6.26,8.46,11.89,9.59,2.1.42,4.22.4,6.34.13,2.68-.34,5.24-1.05,7.63-2.33.5-.27.98-.6,1.47-.9.14-.09.28-.17.47-.29.03.2.06.34.06.48,0,1.98,0,3.95.01,5.93,0,.44-.17.69-.54.91-1.83,1.06-3.8,1.78-5.83,2.35-3,.84-6.06,1.16-9.15.87-7.23-.69-12.93-4.04-16.95-10.11-2.04-3.08-3.22-6.49-3.76-10.13-.35-2.32-.44-4.65-.23-6.99.57-6.42,2.93-12.01,7.75-16.42,3.11-2.85,6.79-4.62,10.92-5.47,2.11-.43,4.25-.6,6.4-.48,10.47.55,18.44,7.11,21.04,16.94.61,2.29.89,4.63.89,6.99,0,11.13,0,22.27,0,33.4,0,.25,0,.5,0,.8Z"/><path class="cls-1" d="m130.27,35.13c-2.24-1.18-4.61-1.88-7.06-2.33-2.29-.41-4.58-.56-6.91-.37-2.65.22-5.21.73-7.67,1.74-6.64,2.73-10.93,7.61-13.06,14.42-.86,2.76-1.19,5.59-1.19,8.48.01,11.94,0,23.89,0,35.83,0,.27-.02.54-.04.85h-6.85c-.01-.3-.03-.57-.03-.84,0-11.48,0-22.95,0-34.43,0-2,.03-4,.26-5.98.72-6.33,2.81-12.1,7-17,3.57-4.17,8.08-6.9,13.32-8.45,2-.59,4.04-.97,6.12-1.17,1.63-.16,3.26-.28,4.9-.21,5.19.2,10.13,1.35,14.63,4.06.38.23.74.48,1.09.71-1.52,1.58-3,3.11-4.52,4.69Z"/><path class="cls-1" d="m127.99,38.49c-1.01,1.95-2,3.87-3.02,5.84-.17-.06-.37-.12-.56-.19-1.45-.58-2.93-1.03-4.48-1.18-6.49-.64-12.09,2.42-14.28,8.72-.61,1.76-.87,3.59-.87,5.45,0,11.88,0,23.76,0,35.64,0,.31,0,.63,0,.91-.55.15-6.05.17-6.82.04-.02-.21-.05-.43-.05-.65,0-12.07,0-24.14,0-36.21,0-3.51.64-6.89,2.2-10.05,2.77-5.6,7.25-9.03,13.32-10.43,2.04-.47,4.12-.63,6.2-.49,2.81.19,5.48.91,7.94,2.32.16.09.31.21.43.29Z"/><path class="cls-1" d="m202.49,40.26V.11c.53-.14,6.12-.16,6.83-.02.02.19.05.39.05.6,0,10.35,0,20.69,0,31.04,0,.33-.06.61-.31.86-2.24,2.28-4.25,4.75-6.22,7.26-.09.12-.19.22-.35.41Z"/><path class="cls-1" d="m213.08.05h6.72c.02.21.06.41.06.61,0,7.9,0,15.8.01,23.7,0,.44-.13.67-.56.86-1.36.58-2.56,1.42-3.74,2.3-.63.47-1.24.96-1.87,1.44-.18.14-.37.27-.53.39-.07-.04-.1-.04-.11-.06-.01-.01-.03-.03-.03-.05-.01-.1-.03-.21-.03-.31,0-9.51,0-19.03,0-28.54,0-.08.03-.16.07-.33Z"/></g></svg>