<?xml version="1.0" encoding="UTF-8"?>
<svg id="Layer_2" data-name="Layer 2" xmlns="http://www.w3.org/2000/svg" xmlns:xlink="http://www.w3.org/1999/xlink" viewBox="0 0 394.22 297.04">
  <defs>
    <style>
      .cls-1 {
        fill: url(#linear-gradient-2);
      }

      .cls-2 {
        fill: #000083;
      }

      .cls-3 {
        fill: url(#linear-gradient-3);
      }

      .cls-4 {
        fill: url(#linear-gradient);
      }
    </style>
    <linearGradient id="linear-gradient" x1="-2566.72" y1="1059.31" x2="-2526.31" y2="1058.99" gradientTransform="translate(14383.32 -5807.48) scale(5.57)" gradientUnits="userSpaceOnUse">
      <stop offset="0" stop-color="#ffb900"/>
      <stop offset=".34" stop-color="#f38000"/>
      <stop offset=".57" stop-color="#f83c72"/>
      <stop offset=".78" stop-color="#fc1cbe"/>
      <stop offset=".93" stop-color="#fe08ed"/>
      <stop offset="1" stop-color="#f0f"/>
    </linearGradient>
    <linearGradient id="linear-gradient-2" x1="-2555.36" y1="1072.57" x2="-2514.15" y2="1049.76" gradientTransform="translate(14383.32 -5807.48) scale(5.57)" gradientUnits="userSpaceOnUse">
      <stop offset="0" stop-color="#ee0a3f"/>
      <stop offset="1" stop-color="#ee0a3f" stop-opacity="0"/>
    </linearGradient>
    <linearGradient id="linear-gradient-3" x1="-3466.53" y1="1072.19" x2="-3446.4" y2="1055.98" gradientTransform="translate(-18926.69 -5779.17) rotate(-180) scale(5.51 -5.51)" gradientUnits="userSpaceOnUse">
      <stop offset="0" stop-color="#ed6600"/>
      <stop offset="1" stop-color="#f98200"/>
    </linearGradient>
  </defs>
  <g id="Layer_2-2" data-name="Layer 2">
    <g>
      <g id="g975">
        <g id="layer1-5">
          <g id="layer1-2">
            <g id="g942">
              <g id="g71">
                <path id="path69" class="cls-4" d="m200.15,184.49c-1.61,0-3.2-.4-4.61-1.2-12.02-6.95-101.03-62.77-104.4-64.47-2.56-1.19-4.31-3.64-4.6-6.45V34.09c-.07-2.92,1.38-5.67,3.82-7.28l.64-.37c8.61-5.34,37.44-22.93,42-25.47,1.05-.62,2.24-.95,3.45-.97,1.14,0,2.26.3,3.27.83,0,0,40.34,26.29,46.51,28.64,4.33,1.99,9.05,2.98,13.82,2.9,5.4.11,10.73-1.19,15.47-3.78,6.03-3.18,44.58-27.63,44.99-27.63.97-.59,2.09-.89,3.22-.87,1.22,0,2.41.34,3.45.97,5.25,2.9,40.98,24.77,42.5,25.74,2.51,1.52,4.04,4.25,4.01,7.18v78.28c-.28,2.81-2.03,5.27-4.6,6.45-3.36,1.84-92.1,57.65-104.35,64.47-1.39.83-2.98,1.27-4.6,1.29"/>
              </g>
              <g id="g79">
                <path id="path77" class="cls-1" d="m199.69,184.49h.46c1.61,0,3.2-.4,4.6-1.2,12.02-6.95,100.99-62.77,104.35-64.47,2.57-1.18,4.32-3.63,4.6-6.45V34.09c.01-1.33-.28-2.64-.87-3.82l-113.14,62.12v92.1"/>
              </g>
              <g id="g970">
                <path id="path968" class="cls-3" d="m199.29,183.38h-.46c-1.6,0-3.17-.4-4.56-1.18-11.89-6.88-99.91-62.1-103.24-63.78-2.54-1.17-4.28-3.59-4.56-6.38V34.59c-.01-1.31.28-2.61.87-3.78l111.94,61.46v91.12"/>
              </g>
            </g>
          </g>
        </g>
      </g>
      <g id="g1006">
        <g id="g35">
          <path id="path33" class="cls-2" d="m0,208.6h15.1v72.66h26.03v14.34H.06l-.06-87.01"/>
        </g>
        <g id="g41">
          <path id="path39" class="cls-2" d="m76.11,230.4c8-.1,15.59,3.55,20.51,9.86v-8.56h14.09v64.04h-14.09v-8.56c-4.92,6.31-12.5,9.96-20.51,9.86-17.57,0-30.9-15.01-30.9-33.33s13.33-33.3,30.9-33.3m2.56,12.83c-11.41,0-18.96,8.97-18.96,20.47s7.68,20.5,18.96,20.5,18.96-8.97,18.96-20.5-7.55-20.47-18.96-20.47"/>
        </g>
        <g id="g47">
          <path id="path45" class="cls-2" d="m121.67,284.62l33.58-40.12h-33.08v-12.8h51.28v11.28l-33.46,39.97h34.22v12.8h-52.54v-11.12"/>
        </g>
        <g id="g53">
          <path id="path51" class="cls-2" d="m210.04,230.4c8-.1,15.59,3.55,20.5,9.86v-8.56h14.09v64.04h-14.09v-8.56c-4.92,6.31-12.5,9.96-20.5,9.86-17.57,0-30.87-15.01-30.87-33.33s13.3-33.3,30.87-33.3m2.56,12.83c-11.41,0-18.96,8.97-18.96,20.47s7.68,20.5,18.96,20.5,18.96-8.97,18.96-20.5-7.55-20.47-18.96-20.47"/>
        </g>
        <g id="g59">
          <path id="path57" class="cls-2" d="m284.88,230.4c7.99-.11,15.57,3.54,20.47,9.86v-36.81h14.09v92.28h-14.09v-8.56c-4.9,6.31-12.48,9.96-20.47,9.86-17.57,0-30.9-15.01-30.9-33.33s13.33-33.3,30.9-33.3m2.56,12.83c-11.41,0-18.96,8.97-18.96,20.47s7.71,20.5,18.96,20.5,18.96-8.97,18.96-20.5-7.55-20.47-18.96-20.47"/>
        </g>
        <g id="g65">
          <path id="path63" class="cls-2" d="m359.69,230.4c7.99-.11,15.57,3.54,20.47,9.86v-8.56h14.06v64.04h-14.12v-8.56c-4.9,6.31-12.48,9.96-20.47,9.86-17.57,0-30.9-15.01-30.9-33.33s13.4-33.3,30.96-33.3m2.56,12.83c-11.41,0-18.96,8.97-18.96,20.47s7.71,20.5,18.96,20.5,18.96-8.97,18.96-20.5-7.55-20.47-18.96-20.47"/>
        </g>
      </g>
    </g>
  </g>
</svg>